<svg xmlns="http://www.w3.org/2000/svg" width="720" height="1280" viewBox="0 0 720 1280">
  <defs>
    <linearGradient id="bg" x1="0%" y1="0%" x2="100%" y2="100%">
      <stop offset="0%" stop-color="#08101e"/>
      <stop offset="100%" stop-color="#121c34"/>
    </linearGradient>
    <linearGradient id="accent" x1="0%" y1="0%" x2="100%" y2="100%">
      <stop offset="0%" stop-color="#38bdf8" stop-opacity="0.28"/>
      <stop offset="100%" stop-color="#f59e0b" stop-opacity="0.2"/>
    </linearGradient>
  </defs>
  <rect width="720" height="1280" fill="url(#bg)"/>
  <rect x="32" y="28" width="656" height="1224" rx="34" fill="#0b1222" stroke="#24324e"/>
  <rect x="60" y="56" width="600" height="104" rx="24" fill="url(#accent)" stroke="#27476b"/>
  <text x="92" y="112" fill="#e5eefc" font-size="38" font-family="IBM Plex Sans, Arial, sans-serif" font-weight="700">Thought Workbench</text>
  <text x="92" y="146" fill="#9fb3d7" font-size="20" font-family="IBM Plex Sans, Arial, sans-serif">Portable PWA for spatial thinking and review workflows</text>
  <g fill="#10192f" stroke="#263552">
    <rect x="60" y="190" width="600" height="244" rx="26"/>
    <rect x="60" y="456" width="600" height="244" rx="26"/>
    <rect x="60" y="722" width="600" height="206" rx="26"/>
    <rect x="60" y="948" width="600" height="272" rx="26"/>
  </g>
  <g fill="#cbd5e1" font-family="IBM Plex Sans, Arial, sans-serif">
    <text x="90" y="234" font-size="24" font-weight="700">Workspace</text>
    <text x="90" y="500" font-size="24" font-weight="700">Timeline + Diff</text>
    <text x="90" y="766" font-size="24" font-weight="700">Task / Review</text>
    <text x="90" y="992" font-size="24" font-weight="700">Preset Panels</text>
  </g>
  <g fill="none" stroke="#7dd3fc" stroke-width="7" stroke-linecap="round">
    <path d="M124 350L236 284 346 336 474 250 592 328"/>
    <path d="M122 614L246 554 374 620 488 532 594 600"/>
  </g>
  <g fill="#f8fafc">
    <circle cx="236" cy="284" r="16"/>
    <circle cx="346" cy="336" r="16"/>
    <circle cx="474" cy="250" r="16"/>
    <circle cx="592" cy="328" r="16"/>
  </g>
  <g fill="#17233c">
    <rect x="92" y="798" width="168" height="94" rx="18"/>
    <rect x="276" y="798" width="168" height="94" rx="18"/>
    <rect x="460" y="798" width="168" height="94" rx="18"/>
    <rect x="92" y="1034" width="536" height="52" rx="16"/>
    <rect x="92" y="1104" width="536" height="52" rx="16"/>
    <rect x="92" y="1174" width="536" height="18" rx="9"/>
  </g>
</svg>
